<svg xmlns="http://www.w3.org/2000/svg" xmlns:xlink="http://www.w3.org/1999/xlink" width="350" height="350" version="1.1" viewBox="0 0 350 350" xml:space="preserve"><desc>Created with Fabric.js 1.7.22</desc><g id="icon" transform="translate(-1.9444444444444287 -1.9444444444444287) scale(3.89 3.89)" style="stroke:none;stroke-width:1;stroke-dasharray:none;stroke-linecap:butt;stroke-linejoin:miter;stroke-miterlimit:10;fill:none;fill-rule:nonzero;opacity:1"><circle cx="45" cy="45" r="45" transform="matrix(1 0 0 1 0 0)" style="stroke:none;stroke-width:1;stroke-dasharray:none;stroke-linecap:butt;stroke-linejoin:miter;stroke-miterlimit:10;fill:#ffc843;fill-rule:nonzero;opacity:1"/><circle cx="45" cy="45" r="35" transform="matrix(1 0 0 1 0 0)" style="stroke:none;stroke-width:1;stroke-dasharray:none;stroke-linecap:butt;stroke-linejoin:miter;stroke-miterlimit:10;fill:#d38700;fill-rule:nonzero;opacity:1"/><path style="stroke:none;stroke-width:1;stroke-dasharray:none;stroke-linecap:butt;stroke-linejoin:miter;stroke-miterlimit:10;fill:#ffc843;fill-rule:nonzero;opacity:1" stroke-linecap="round" d="M 46.524 26.367 l 5.019 10.169 c 0.248 0.501 0.726 0.849 1.279 0.93 l 11.222 1.631 c 1.394 0.203 1.95 1.915 0.942 2.898 l -8.12 7.915 c -0.4 0.39 -0.583 0.953 -0.489 1.504 l 1.917 11.176 c 0.238 1.388 -1.219 2.447 -2.465 1.791 l -10.037 -5.277 c -0.495 -0.26 -1.086 -0.26 -1.581 0 l -10.037 5.277 c -1.247 0.655 -2.703 -0.403 -2.465 -1.791 l 1.917 -11.176 c 0.095 -0.551 -0.088 -1.114 -0.489 -1.504 l -8.12 -7.915 c -1.008 -0.983 -0.452 -2.696 0.942 -2.898 l 11.222 -1.631 c 0.553 -0.08 1.032 -0.428 1.279 -0.93 l 5.019 -10.169 C 44.1 25.104 45.9 25.104 46.524 26.367 z" transform="matrix(1 0 0 1 0 0)"/></g></svg>